<?xml version="1.0" encoding="UTF-8" standalone="no"?><!DOCTYPE svg PUBLIC "-//W3C//DTD SVG 1.1//EN" "http://www.w3.org/Graphics/SVG/1.1/DTD/svg11.dtd"><svg width="100%" height="100%" viewBox="0 0 45 45" version="1.1" xmlns="http://www.w3.org/2000/svg" xmlns:xlink="http://www.w3.org/1999/xlink" xml:space="preserve" xmlns:serif="http://www.serif.com/" style="fill-rule:evenodd;clip-rule:evenodd;stroke-linejoin:round;stroke-miterlimit:2;"><path d="M22.5,39.449l-0,-8.522c-0,-0.018 0.01,-0.035 0.026,-0.044l10.961,-6.324c0.016,-0.008 0.026,-0.025 0.026,-0.044l-0,-2.423c-0,-0.018 -0.01,-0.035 -0.026,-0.044c-0.015,-0.009 -0.035,-0.009 -0.051,0l-10.86,6.265c-0.016,0.009 -0.035,0.009 -0.051,0c-0.016,-0.009 -0.025,-0.026 -0.025,-0.044l-0,-2.425c-0,-0.018 0.01,-0.035 0.026,-0.044l10.961,-6.323c0.015,-0.009 0.025,-0.026 0.026,-0.044l-0,-2.423c-0.001,-0.018 -0.011,-0.035 -0.026,-0.044c-0.016,-0.009 -0.035,-0.009 -0.051,-0l-10.86,6.264c-0.016,0.01 -0.035,0.01 -0.051,0.001c-0.016,-0.01 -0.025,-0.026 -0.025,-0.045l-0,-2.423c-0,-0.018 0.01,-0.035 0.026,-0.044l10.961,-6.32c0.016,-0.009 0.026,-0.026 0.026,-0.044l-0,-2.457c-0.001,-0.036 -0.02,-0.069 -0.051,-0.088l-10.912,-6.293c-0.031,-0.018 -0.069,-0.018 -0.1,-0l-2.076,1.197c-0.016,0.009 -0.026,0.026 -0.026,0.044c0,0.018 0.01,0.035 0.026,0.044l10.86,6.264c0.015,0.01 0.025,0.026 0.025,0.044c-0,0.018 -0.01,0.035 -0.025,0.044l-2.076,1.198c-0.031,0.017 -0.07,0.017 -0.101,-0l-10.911,-6.294c-0.033,-0.019 -0.074,-0.019 -0.107,-0l-2.07,1.196c-0.016,0.009 -0.026,0.026 -0.026,0.044c0,0.018 0.01,0.035 0.026,0.044l10.858,6.266c0.016,0.009 0.026,0.025 0.026,0.044c0,0.018 -0.01,0.035 -0.026,0.044l-2.074,1.197c-0.033,0.019 -0.074,0.019 -0.108,-0l-10.905,-6.295c-0.033,-0.019 -0.074,-0.019 -0.107,0l-2.146,1.241l0,21.316c0,0.018 0.01,0.035 0.026,0.044l2.1,1.212c0.016,0.01 0.036,0.01 0.051,0.001c0.016,-0.01 0.026,-0.027 0.026,-0.045l-0,-21.169c-0.001,-0.018 0.009,-0.035 0.025,-0.044c0.016,-0.009 0.035,-0.009 0.051,0l2.101,1.213c0.016,0.009 0.025,0.025 0.025,0.043l-0,21.286c-0,0.019 0.01,0.035 0.026,0.044l2.1,1.212c0.016,0.01 0.036,0.01 0.052,0c0.016,-0.009 0.026,-0.026 0.025,-0.045l0,-21.167c0,-0.019 0.01,-0.036 0.026,-0.045c0.015,-0.009 0.035,-0.009 0.051,0.001l2.1,1.211c0.016,0.009 0.026,0.025 0.026,0.044l-0,21.287c-0,0.017 0.009,0.034 0.024,0.043l2.107,1.212c0.015,0.006 0.033,0.005 0.047,-0.004c0.014,-0.008 0.023,-0.024 0.024,-0.04Z" style="fill-rule:nonzero;"/></svg>